#!OML:ASF F:\VICON\USERDATA\INSTALL\Justin_Nancy\Justin_Nancy.ASF
:FULLY-SPECIFIED
:DEGREES
114
root -9.11716 16.6157 -3.80983 -3.15932 19.5978 -3.62445
lowerback 10.8319 -0.459971 0.598035
upperback 0.790471 -0.234986 5.02576
thorax -5.23946 -0.0619449 4.98968
lowerneck -17.2192 -1.62004 -7.77058
upperneck 24.1485 0.131902 -0.288717
head 10.6473 -0.669979 1.22089
rclavicle 8.54774e-015 -1.98785e-014
rhumerus -38.8967 -13.821 -71.1427
rradius 36.5274
rwrist -7.04515
rhand -25.6765 7.35726
rfingers 7.12502
rthumb 0.858167 -22.6208
lclavicle 8.54774e-015 -1.98785e-014
lhumerus -33.615 3.99646 90.0514
lradius 39.453
lwrist 3.68914
lhand -21.5932 32.8181
lfingers 7.12502
lthumb 4.80158 62.7437
rfemur -22.0661 -4.00685 8.95926
rtibia 35.1313
rfoot -6.38502 1.31579
rtoes -21.921
lfemur -11.9408 -2.74085 -21.8329
ltibia 68.6651
lfoot -10.7246 1.95837
ltoes 4.05858
115
root -9.09739 16.653 -3.62985 -3.03827 21.0618 -3.67781
lowerback 10.8218 -0.196026 0.621041
upperback 0.695001 0.120671 4.95116
thorax -5.36328 0.115314 4.84426
lowerneck -16.8661 -1.54433 -7.62919
upperneck 24.3788 0.157692 -0.20608
head 10.6608 -0.636134 1.23348
rclavicle -1.2921e-014 -7.95139e-016
rhumerus -39.1082 -14.3451 -70.8983
rradius 35.9653
rwrist -6.59927
rhand -26.717 7.40449
rfingers 7.12502
rthumb -0.146756 -22.5752
lclavicle -1.2921e-014 -7.95139e-016
lhumerus -33.807 2.99562 90.6694
lradius 39.3492
lwrist 2.50772
lhand -20.8568 31.9012
lfingers 7.12502
lthumb 5.51259 61.8095
rfemur -20.9714 -3.76209 8.97144
rtibia 34.8824
rfoot -6.68451 -0.277527
rtoes -23.0177
lfemur -13.609 -1.70671 -21.6604
ltibia 68.7998
lfoot -11.6585 2.20033
ltoes 4.42327
116
root -9.07404 16.693 -3.4459 -3.06376 22.8503 -4.20281
lowerback 10.7127 -0.0807528 1.12993
upperback 0.501095 0.342059 4.92353
thorax -5.52138 0.215665 4.49181
lowerneck -15.5856 -1.27511 -7.19028
upperneck 23.7364 0.288367 -0.225269
head 10.17 -0.511457 1.17086
rclavicle -1.71949e-014 4.77083e-015
rhumerus -39.323 -14.8274 -70.7388
rradius 35.2801
rwrist -5.98588
rhand -27.3889 7.31315
rfingers 7.12502
rthumb -0.795652 -22.6651
lclavicle -1.71949e-014 4.77083e-015
lhumerus -34.1482 2.2054 91.0114
lradius 38.9431
lwrist 0.90362
lhand -20.466 30.9115
lfingers 7.12502
lthumb 5.88993 60.8096
rfemur -19.6651 -3.39554 9.40015
rtibia 34.5765
rfoot -6.97318 -2.40134
rtoes -21.9649
lfemur -15.3723 -0.893876 -21.0725
ltibia 68.8055
lfoot -13.4165 2.24737
ltoes 1.94437
117
root -9.05378 16.7313 -3.26312 -3.18263 24.852 -4.89891
lowerback 10.6784 -0.036877 1.78224
upperback 0.190624 0.494264 4.87575
thorax -5.83525 0.277181 4.05086
lowerneck -13.9974 -1.00333 -6.27866
upperneck 22.9769 0.34483 -0.455816
head 9.58928 -0.40126 0.944254
rclavicle 3.11595e-014 1.90833e-014
rhumerus -39.9256 -15.2134 -70.7154
rradius 34.6996
rwrist -5.05525
rhand -27.6823 7.72713
rfingers 7.12502
rthumb -1.07906 -22.2499
lclavicle 3.11595e-014 1.90833e-014
lhumerus -34.7895 1.56231 91.0906
lradius 38.4952
lwrist -0.781937
lhand -20.247 30.4694
lfingers 7.12502
lthumb 6.10134 60.3615
rfemur -18.3001 -3.02232 10.0339
rtibia 34.3313
rfoot -7.28437 -4.72568
rtoes -20.5392
lfemur -17.1791 -0.128384 -20.3623
ltibia 68.5461
lfoot -14.9015 1.65905
ltoes -0.419846
118
root -9.04756 16.7555 -3.1036 -3.29491 26.7877 -5.70534
lowerback 10.8502 0.0103154 2.54164
upperback 0.209929 0.667837 4.92893
thorax -5.91469 0.343869 3.65044
lowerneck -14.9946 -1.19168 -6.90242
upperneck 23.3686 0.210133 0.0495741
head 9.92228 -0.472265 1.20934
rclavicle 1.78906e-015 -1.59028e-015
rhumerus -39.399 -15.3778 -70.9352
rradius 34.0261
rwrist -3.70964
rhand -27.9078 8.62533
rfingers 7.12502
rthumb -1.2969 -21.3505
lclavicle 1.78906e-015 -1.59028e-015
lhumerus -34.1922 1.87709 91.0128
lradius 37.3322
lwrist -2.93203
lhand -19.8664 27.5237
lfingers 7.12502
lthumb 6.46881 57.4049
rfemur -17.2754 -2.65807 10.9003
rtibia 34.0483
rfoot -7.41268 -7.03278
rtoes -20.9796
lfemur -19.3524 0.712068 -19.6436
ltibia 68.3003
lfoot -15.7719 0.672511
ltoes 0.0536491
119
root -8.97933 16.7886 -2.89288 -2.82742 29.4167 -4.75259
lowerback 10.1605 -0.164206 1.98627
upperback 0.630212 0.291936 4.6438
thorax -5.06571 0.16636 3.70375
lowerneck -16.2626 -1.35492 -7.41793
upperneck 23.5406 0.249864 0.0144934
head 10.2295 -0.512214 1.28808
rclavicle 5.36719e-014 -3.97569e-015
rhumerus -38.4496 -14.8401 -71.214
rradius 33.7961
rwrist -2.74083
rhand -27.6549 8.24453
rfingers 7.12502
rthumb -1.05259 -21.7326
lclavicle 5.36719e-014 -3.97569e-015
lhumerus -33.3682 2.15875 91.2016
lradius 36.5227
lwrist -4.37876
lhand -19.2091 24.542
lfingers 7.12502
lthumb 7.10334 54.4028
rfemur -15.5418 -3.95863 9.742
rtibia 33.8436
rfoot -8.11335 -8.384
rtoes -21.7748
lfemur -20.492 0.721806 -21.1591
ltibia 67.5386
lfoot -16.7663 0.693524
ltoes 1.26616
